<svg xmlns="http://www.w3.org/2000/svg" width="620" height="520" viewBox="0 0 620 520" role="img" aria-labelledby="interiorTitle interiorDesc">
  <title id="interiorTitle">店内写真差し替え枠</title>
  <desc id="interiorDesc">店内のショーケースとデュエルスペースをイメージしたプレースホルダー画像</desc>
  <defs>
    <linearGradient id="interiorBg" x1="0" x2="1" y1="0" y2="1">
      <stop stop-color="#ffffff"/>
      <stop offset="1" stop-color="#d9e7ff"/>
    </linearGradient>
  </defs>
  <rect width="620" height="520" fill="url(#interiorBg)"/>
  <path d="M0 0h620v140L0 300z" fill="#f6f9ff"/>
  <path d="M70 90h450l-24 44H46z" fill="#006ef5" opacity=".2"/>
  <path d="M96 150h420l46 250H148z" fill="#071b43"/>
  <path d="M126 184h346l22 94H144z" fill="#ffffff" opacity=".17"/>
  <path d="M158 316h296l14 54H174z" fill="#ffffff" opacity=".12"/>
  <g fill="#ffbc1a">
    <rect x="158" y="204" width="54" height="42" rx="5"/>
    <rect x="232" y="204" width="54" height="42" rx="5"/>
    <rect x="306" y="204" width="54" height="42" rx="5"/>
    <rect x="380" y="204" width="54" height="42" rx="5"/>
  </g>
  <path d="M86 422h330l-18 36H68z" fill="#006ef5"/>
  <path d="M430 422h98l-18 36h-98z" fill="#e8303f"/>
  <text x="62" y="486" fill="#071b43" font-family="Arial Black, Arial, sans-serif" font-size="24">DUEL SPACE</text>
</svg>
