<svg xmlns="http://www.w3.org/2000/svg" width="760" height="560" viewBox="0 0 760 560" role="img" aria-labelledby="heroVisualTitle heroVisualDesc">
  <title id="heroVisualTitle">宇宙感のあるカードショップビジュアル</title>
  <desc id="heroVisualDesc">ネイビーの宇宙背景に、白いカードパネルと青い光の軌道が浮かぶ近未来的なビジュアル</desc>
  <defs>
    <linearGradient id="space" x1="0" x2="1" y1="0" y2="1">
      <stop stop-color="#f7fbff"/>
      <stop offset=".38" stop-color="#dfeaff"/>
      <stop offset=".68" stop-color="#092c70"/>
      <stop offset="1" stop-color="#041437"/>
    </linearGradient>
    <linearGradient id="panel" x1="0" x2="1" y1="0" y2="1">
      <stop stop-color="#ffffff"/>
      <stop offset="1" stop-color="#e9f2ff"/>
    </linearGradient>
    <linearGradient id="blueLine" x1="0" x2="1">
      <stop stop-color="#2ab7ff"/>
      <stop offset="1" stop-color="#005cff"/>
    </linearGradient>
    <linearGradient id="sunLine" x1="0" x2="1">
      <stop stop-color="#ffd642"/>
      <stop offset="1" stop-color="#ff8717"/>
    </linearGradient>
    <filter id="lift" x="-20%" y="-20%" width="140%" height="140%">
      <feDropShadow dx="0" dy="22" stdDeviation="18" flood-color="#041437" flood-opacity=".28"/>
    </filter>
    <filter id="glow" x="-40%" y="-40%" width="180%" height="180%">
      <feGaussianBlur stdDeviation="4" result="blur"/>
      <feMerge>
        <feMergeNode in="blur"/>
        <feMergeNode in="SourceGraphic"/>
      </feMerge>
    </filter>
  </defs>
  <rect width="760" height="560" fill="url(#space)"/>
  <g opacity=".55">
    <circle cx="598" cy="74" r="1.6" fill="#fff"/>
    <circle cx="666" cy="126" r="1.2" fill="#fff"/>
    <circle cx="704" cy="246" r="1.5" fill="#2ab7ff"/>
    <circle cx="552" cy="286" r="1" fill="#fff"/>
    <circle cx="630" cy="384" r="1.4" fill="#fff"/>
    <circle cx="430" cy="82" r="1" fill="#2ab7ff"/>
    <circle cx="494" cy="438" r="1.2" fill="#fff"/>
    <circle cx="716" cy="456" r="1" fill="#ffc928"/>
  </g>
  <path d="M54 96C230 26 506 42 714 154" fill="none" stroke="#2ab7ff" stroke-width="2" opacity=".34"/>
  <path d="M116 455C308 340 528 320 742 378" fill="none" stroke="#ffc928" stroke-width="4" opacity=".34"/>
  <path d="M486 40h178l-22 34H464z" fill="#ffc928" opacity=".95"/>
  <path d="M616 162h144v16H604z" fill="#e7354c" opacity=".86"/>
  <path d="M52 420h260l-20 34H32z" fill="#005cff" opacity=".9"/>
  <g filter="url(#lift)">
    <path d="M116 154h486l52 292H168z" fill="url(#panel)"/>
    <path d="M154 196h390l24 150H178z" fill="#041437"/>
    <path d="M184 222h322l7 44H191z" fill="#2ab7ff" opacity=".28"/>
    <path d="M206 294h316l8 38H214z" fill="#ffffff" opacity=".16"/>
    <path d="M168 376h404l8 28H176z" fill="#005cff" opacity=".9"/>
    <path d="M360 376h150l-14 28H346z" fill="url(#sunLine)"/>
    <path d="M526 376h54l-14 28h-54z" fill="#e7354c"/>
  </g>
  <g filter="url(#lift)">
    <rect x="220" y="80" width="104" height="150" rx="8" fill="#ffffff" transform="rotate(-10 272 155)"/>
    <rect x="238" y="100" width="68" height="52" rx="5" fill="#ffc928" transform="rotate(-10 272 155)"/>
    <rect x="240" y="170" width="58" height="8" rx="4" fill="#041437" transform="rotate(-10 272 155)"/>
    <rect x="240" y="190" width="42" height="8" rx="4" fill="#005cff" transform="rotate(-10 272 155)"/>
  </g>
  <g filter="url(#lift)">
    <rect x="480" y="102" width="116" height="166" rx="8" fill="#082a6f" transform="rotate(11 538 185)"/>
    <rect x="500" y="126" width="74" height="60" rx="5" fill="#e7354c" transform="rotate(11 538 185)"/>
    <rect x="504" y="204" width="62" height="9" rx="4" fill="#ffc928" transform="rotate(11 538 185)"/>
    <rect x="504" y="226" width="44" height="9" rx="4" fill="#ffffff" opacity=".82" transform="rotate(11 538 185)"/>
  </g>
  <g filter="url(#glow)" opacity=".75">
    <path d="M86 138h130" stroke="#2ab7ff" stroke-width="3"/>
    <path d="M92 152h72" stroke="#ffffff" stroke-width="2"/>
    <path d="M612 488h92" stroke="#2ab7ff" stroke-width="2"/>
  </g>
  <text x="92" y="514" fill="#ffffff" font-family="Arial Black, Arial, sans-serif" font-size="18" font-weight="900">YOKKAICHI TCG ORBIT</text>
</svg>
